<svg width="74" height="72" viewBox="0 0 74 72" fill="none" xmlns="http://www.w3.org/2000/svg">
<rect width="74" height="72" rx="12" fill="#F5F5F5" fill-opacity="0.05"/>
<path opacity="0.3" d="M43.3942 53.0715C43.3222 53.4356 43.2688 53.8442 43.2366 54.2876C43.1598 55.3599 42.2598 56.2 41.1859 56.2H25.7198C24.9486 56.2 24.2106 55.8721 23.6946 55.2999C23.1808 54.7306 22.9318 53.9673 23.0109 53.2045C23.0109 53.2043 23.0109 53.2042 23.0109 53.204L23.9042 44.235C20.6546 41.5325 18.8 37.5859 18.8 33.3333C18.8 28.1038 20.5577 23.7172 23.6373 20.6375C26.7169 17.5578 31.1034 15.8 36.3327 15.8C44.3319 15.8 51.0776 21.4703 52.3667 29.2861M43.3942 53.0715L52.1695 29.3193M43.3942 53.0715C44.4326 53.5387 46.1569 54.2 47.621 54.2C49.5814 54.2 51.1782 52.6165 51.1782 50.6667V48.6667C51.1782 48.3775 51.2855 48.1116 51.5326 47.8436L51.5337 47.8423C51.8952 47.4436 52.0336 46.8902 51.9085 46.3706L43.3942 53.0715ZM52.3667 29.2861C52.3667 29.2863 52.3668 29.2866 52.3668 29.2868L52.1695 29.3193M52.3667 29.2861C52.3667 29.286 52.3667 29.2859 52.3666 29.2858L52.1695 29.3193M52.3667 29.2861C52.4965 30.0493 52.4433 30.8362 52.2107 31.5593M52.1695 29.3193C52.2941 30.052 52.2428 30.8067 52.0201 31.4987M52.2107 31.5593C52.2108 31.5591 52.2109 31.5588 52.211 31.5585L52.0201 31.4987M52.2107 31.5593C52.0638 32.0278 51.961 32.6407 51.9104 33.3803L51.9103 33.381C51.8629 34.0389 52.0185 34.7592 52.3062 35.2556M52.2107 31.5593C52.2107 31.5595 52.2106 31.5597 52.2105 31.5599L52.0201 31.4987M52.0201 31.4987L52.3062 35.2556M52.3062 35.2556L52.3046 35.253L52.1348 35.3587M52.3062 35.2556L51.7108 33.3667C51.6608 34.0607 51.8235 34.8233 52.1348 35.3587M52.3062 35.2556L54.8499 39.3437L54.8501 39.3441C55.2969 40.0664 55.3167 40.9419 54.9041 41.6827L54.9041 41.6827C54.4908 42.4241 53.7359 42.8673 52.8875 42.8673H51.9665M52.3062 35.2556C52.3067 35.2564 52.3072 35.2573 52.3077 35.2581L52.1348 35.3587M52.1348 35.3587L54.6801 39.4493M54.6801 39.4493C55.0887 40.11 55.1067 40.908 54.7294 41.5853C54.3514 42.2633 53.6634 42.6673 52.8875 42.6673L54.6801 39.4493ZM54.6801 39.4493L51.9665 42.8673M51.9665 42.8673C52.0486 43.1297 52.1717 43.3594 52.334 43.5571C52.6713 43.9677 52.8301 44.5015 52.766 45.0244M51.9665 42.8673L51.9222 46.116L52.0413 46.2766C52.4472 45.9756 52.7047 45.5294 52.766 45.0244M52.766 45.0244L52.5675 45L52.766 45.024C52.766 45.0242 52.766 45.0243 52.766 45.0244ZM50.6577 29.5722L50.6575 29.5712C49.5064 22.5954 43.4842 17.5333 36.3327 17.5333C31.5937 17.5333 27.6471 19.1246 24.8858 21.8861C22.1245 24.6476 20.5333 28.5945 20.5333 33.334C20.5333 37.2103 22.2861 40.7947 25.3444 43.1694C25.5802 43.3523 25.7049 43.6435 25.6755 43.9398L25.6755 43.9398L24.7355 53.3798L24.7354 53.3807C24.7059 53.6638 24.793 53.9308 24.9814 54.1398C25.1729 54.3513 25.4337 54.4673 25.7198 54.4673H41.1865C41.353 54.4673 41.4966 54.335 41.509 54.1635C41.5605 53.4479 41.6599 52.8053 41.8067 52.2448C38.8737 50.5012 35.806 47.6381 35.6689 47.5102L35.6684 47.5097C35.3203 47.1824 35.3017 46.6339 35.6297 46.285C35.9572 45.936 36.5048 45.9179 36.8547 46.2453L36.8552 46.2458L36.8554 46.246L36.8561 46.2467L36.8586 46.249L36.8675 46.2572L36.8997 46.2871C36.9275 46.3128 36.9678 46.3499 37.0196 46.3971C37.1233 46.4917 37.2729 46.6269 37.4607 46.7932C37.8363 47.1259 38.3644 47.583 38.9824 48.0881C40.2208 49.1001 41.8115 50.2978 43.2579 51.0779C43.258 51.0779 43.258 51.0779 43.2581 51.078L43.2584 51.0782C43.303 51.1019 43.941 51.4417 44.7901 51.7798C45.6689 52.1297 46.7469 52.4667 47.6216 52.4667C48.6294 52.4667 49.4456 51.6566 49.4456 50.6667V48.6667C49.4456 48.0058 49.6771 47.379 50.1086 46.8427C49.7999 46.7681 49.5603 46.5274 49.4813 46.2209C49.4813 46.2207 49.4812 46.2206 49.4812 46.2205L49.6749 46.1707C49.6596 46.112 49.6509 46.0507 49.6522 45.9867L50.6577 29.5722ZM50.6577 29.5722C50.7418 30.0676 50.7076 30.571 50.5591 31.0328L50.5586 31.0344C50.3673 31.6469 50.2407 32.3965 50.1813 33.2583C50.1095 34.255 50.3416 35.3261 50.8201 36.1461L50.82 36.1462L50.823 36.151L53.3774 40.2567C53.5369 40.5142 53.4428 40.7445 53.3906 40.837L53.3899 40.8382C53.3377 40.9321 53.1922 41.1333 52.8875 41.1333H50.9782C50.4991 41.1333 50.1115 41.5209 50.1115 42C50.1115 43.3006 50.5879 44.1616 50.9953 44.6566C51.0367 44.7076 51.052 44.7662 51.0462 44.8144C51.0429 44.8411 51.0331 44.8665 51.0078 44.8858C50.7824 45.0528 50.5634 45.1301 50.3309 45.1339C50.3202 45.1332 50.3095 45.1332 50.2987 45.1341C49.8306 45.1409 49.4617 45.5187 49.4523 45.9825L50.6577 29.5722ZM32.3329 42.8667C33.5459 42.8667 34.5328 41.8798 34.5328 40.6667C34.5328 40.1874 34.1445 39.8 33.6661 39.8C33.1878 39.8 32.7995 40.1874 32.7995 40.6667C32.7995 40.9246 32.59 41.1333 32.3329 41.1333C31.305 41.1333 30.1906 40.2673 29.3179 38.8958C28.4533 37.5371 27.8664 35.7406 27.8664 34C27.8664 32.6398 28.9728 31.5333 30.3329 31.5333C31.6931 31.5333 32.7995 32.6398 32.7995 34C32.7995 34.4785 33.1877 34.8667 33.6661 34.8667C34.1446 34.8667 34.5328 34.4785 34.5328 34C34.5328 31.6836 32.6493 29.8 30.3329 29.8C28.0165 29.8 26.1331 31.6836 26.1331 34C26.1331 36.2297 26.8896 38.4357 28.0331 40.0874C29.1718 41.7323 30.7245 42.8667 32.3329 42.8667Z" fill="#BBBBBB" stroke="#BBBBBB" stroke-width="0.4"/>
</svg>
