<svg width="74" height="72" viewBox="0 0 74 72" fill="none" xmlns="http://www.w3.org/2000/svg">
<rect width="74" height="72" rx="12" fill="#F5F5F5" fill-opacity="0.05"/>
<path opacity="0.3" d="M26.6057 35.3643C22.9345 35.0625 20.1155 33.4783 18.7055 30.8692L18.7054 30.8692C17.4283 28.5041 17.5099 25.527 18.9017 22.9088C19.0018 22.7207 19.1691 22.5774 19.3704 22.5083C19.5717 22.4393 19.7915 22.4498 19.9854 22.5378C20.1791 22.6258 20.3322 22.7844 20.414 22.9811C20.4958 23.1779 20.5005 23.3985 20.4273 23.5985C20.3953 23.6861 20.3781 23.8231 20.3882 24.0068C20.3982 24.1876 20.434 24.401 20.4969 24.6337C20.623 25.0993 20.8542 25.6283 21.1862 26.1088C21.7593 26.9375 22.4427 27.3668 23.0417 27.3668C23.6961 27.3668 24.3076 27.1256 24.9329 26.725C25.5611 26.3227 26.1872 25.7706 26.8747 25.1634C26.8747 25.1634 26.8747 25.1634 26.8748 25.1634L26.8867 25.1528C28.77 23.4886 30.9715 21.5433 34.4929 21.828L34.4954 21.8281L34.4954 21.8282C35.6242 21.9333 36.6823 22.4198 37.5 23.2051C38.3177 22.4198 39.3758 21.9333 40.5046 21.8282L40.5072 21.8279L40.5072 21.8279C44.0289 21.5449 46.2269 23.4865 48.1103 25.1501L48.1252 25.1634C48.8128 25.7706 49.4387 26.3227 50.0667 26.725C50.6919 27.1256 51.3034 27.3668 51.9584 27.3668C52.5577 27.3668 53.2407 26.9376 53.8137 26.1089C54.1458 25.628 54.377 25.099 54.5031 24.6334C54.566 24.4008 54.6018 24.1874 54.6118 24.0067C54.6219 23.823 54.6047 23.686 54.5727 23.5985C54.4995 23.3984 54.5042 23.1778 54.586 22.9811C54.6678 22.7844 54.8209 22.6258 55.0146 22.5378C55.2085 22.4498 55.4283 22.4393 55.6296 22.5083C55.8309 22.5774 55.9982 22.7207 56.0983 22.9088C57.4901 25.527 57.5717 28.5041 56.2946 30.8691C54.886 33.4783 52.0654 35.0625 48.3943 35.3643L48.3938 35.3644C47.7971 35.4118 47.1151 35.4489 46.3792 35.4489C43.4723 35.4489 39.7108 34.8974 37.5 32.3902C36.1411 33.931 34.1978 34.7313 32.2374 35.1203C30.1998 35.5246 28.1213 35.4893 26.6057 35.3643ZM26.6057 35.3643C26.6056 35.3643 26.6056 35.3643 26.6056 35.3643L26.622 35.165L26.6057 35.3643ZM32.9182 40.5387L32.9182 40.5384C32.9081 40.399 32.9326 40.2593 32.9894 40.1318C33.0462 40.0042 33.1337 39.8927 33.2441 39.8074L33.3664 39.9657L33.2441 39.8074C33.3546 39.7222 33.4844 39.6658 33.6221 39.6437C33.7595 39.6216 33.9001 39.6342 34.0314 39.6804C35.1512 40.0653 36.3186 40.2914 37.5 40.3524C38.6814 40.2914 39.8488 40.0653 40.9686 39.6804C41.0999 39.6341 41.2407 39.6215 41.3782 39.6437C41.516 39.6659 41.6459 39.7224 41.7564 39.8078M32.9182 40.5387L41.634 39.966M32.9182 40.5387C32.9236 40.6119 32.9898 41.4988 33.1255 42.5493C33.2603 43.5926 33.4668 44.8236 33.7592 45.5714L33.7592 45.5714C33.8076 45.6949 33.8842 45.8052 33.983 45.8934C34.0818 45.9816 34.2 46.0451 34.328 46.0787C34.456 46.1122 34.59 46.1148 34.7192 46.0862C34.8484 46.0575 34.969 45.9986 35.071 45.9142L35.071 45.9142L35.2035 45.8047C35.6063 46.889 36.151 47.9147 36.8235 48.8542L36.8246 48.8557C36.9023 48.9622 37.0038 49.049 37.1212 49.1089C37.2385 49.1688 37.3683 49.2 37.5 49.2C37.6317 49.2 37.7615 49.1688 37.8788 49.1089C37.9962 49.049 38.0977 48.9622 38.1754 48.8557L38.1765 48.8542C38.8491 47.9143 39.3939 46.8883 39.7965 45.8036M32.9182 40.5387L39.7965 45.8036M41.7564 39.8078L41.634 39.966M41.7564 39.8078C41.7563 39.8078 41.7562 39.8077 41.7561 39.8076L41.634 39.966M41.7564 39.8078C41.8665 39.8929 41.9538 40.0041 42.0106 40.1313L41.8279 40.2128M41.634 39.966C41.7179 40.0308 41.7846 40.1156 41.8279 40.2128M41.8279 40.2128L42.0106 40.1313C42.0674 40.2586 42.0918 40.3981 42.0818 40.5372L42.0818 40.5376C42.0764 40.6108 42.0102 41.4981 41.8745 42.5488C41.7397 43.5922 41.5332 44.8233 41.2408 45.5703C41.1924 45.6938 41.1158 45.8041 41.017 45.8923C40.9182 45.9805 40.8001 46.044 40.672 46.0776C40.544 46.1111 40.4099 46.1137 40.2808 46.0851C40.1516 46.0564 40.031 45.9975 39.929 45.9131L39.929 45.9131L39.7965 45.8036M41.8279 40.2128L39.7965 45.8036M55.1912 27.0727C55.3024 26.912 55.4065 26.7465 55.5032 26.5768C55.6175 27.7773 55.3828 28.9903 54.821 30.0648C53.7075 32.126 51.394 33.4249 48.2576 33.6828L48.2576 33.6828C46.7957 33.8032 44.772 33.8375 42.8656 33.4259C40.9569 33.0138 39.1981 32.1622 38.216 30.5379L38.216 30.5378C38.1413 30.4144 38.0363 30.3122 37.9109 30.2412C37.7855 30.1702 37.644 30.1329 37.5 30.1329C37.356 30.1329 37.2145 30.1702 37.0891 30.2412C36.9637 30.3122 36.8587 30.4144 36.784 30.5378L36.784 30.5379C35.8019 32.1623 34.0429 33.0139 32.134 33.4259C30.2274 33.8375 28.2037 33.803 26.7424 33.6828L26.7424 33.6828C23.6061 33.4249 21.2926 32.1261 20.1791 30.065C19.6178 28.9901 19.3837 27.7769 19.4987 26.5764C19.5955 26.7462 19.6997 26.9118 19.811 27.0727C20.6804 28.3302 21.8227 29.0542 23.0424 29.0542C25.0097 29.0542 26.4741 27.7616 27.9463 26.4621L27.9808 26.4317L27.9809 26.4316C29.7712 24.8503 31.5549 23.2824 34.3575 23.5097C34.8475 23.5619 35.3209 23.7189 35.746 23.9703C36.1719 24.2222 36.5396 24.563 36.8245 24.97L36.8241 24.9703L36.8326 24.9809C36.9132 25.0809 37.015 25.1616 37.1307 25.2171C37.2463 25.2726 37.3729 25.3014 37.5011 25.3014C37.6293 25.3014 37.7559 25.2726 37.8715 25.2171C37.9872 25.1616 38.089 25.0809 38.1695 24.9809L38.1699 24.9812L38.1777 24.97C38.4625 24.563 38.8303 24.2222 39.2561 23.9703C39.6813 23.7189 40.1547 23.5619 40.6446 23.5097C43.4404 23.2839 45.2304 24.8501 47.0213 26.4316L47.0449 26.4525C48.5211 27.7576 49.9876 29.0542 51.9598 29.0542C53.1783 29.0542 54.3218 28.3302 55.1912 27.0727ZM37.5058 42.0399C38.4483 42.0125 39.3843 41.878 40.2963 41.6392C40.22 42.3552 40.1155 43.0677 39.9831 43.7752L39.9048 43.7105L39.9047 43.7105C39.7945 43.6196 39.6632 43.5585 39.5229 43.5328C39.3826 43.5072 39.2381 43.518 39.1031 43.5643C38.9682 43.6105 38.8473 43.6905 38.7518 43.7966C38.657 43.9019 38.5903 44.0294 38.5576 44.1673C38.3125 45.0826 37.9572 45.9637 37.5 46.7911C37.043 45.9642 36.6878 45.0836 36.4425 44.1689C36.41 44.0309 36.3434 43.9033 36.2488 43.7978C36.1533 43.6915 36.0324 43.6113 35.8973 43.565C35.7623 43.5186 35.6177 43.5078 35.4773 43.5334C35.3369 43.559 35.2054 43.6203 35.0952 43.7113L35.0169 43.776C34.8844 43.0684 34.7799 42.3558 34.7037 41.6399C35.6157 41.8785 36.5518 42.0127 37.4942 42.0399L37.4942 42.0402L37.5058 42.0399Z" fill="#BBBBBB" stroke="#BBBBBB" stroke-width="0.4"/>
</svg>
