<svg width="74" height="72" viewBox="0 0 74 72" fill="none" xmlns="http://www.w3.org/2000/svg">
<rect width="74" height="72" rx="12" fill="#F5F5F5" fill-opacity="0.05"/>
<g opacity="0.3">
<path d="M27 56.2998C27 54.1289 28.4717 52.3714 30.6358 50.766" stroke="#BBBBBB" stroke-width="2" stroke-miterlimit="10" stroke-linecap="round" stroke-linejoin="round"/>
<path d="M37.4999 46.662C42.7499 43.7496 47.9999 40.8999 47.9999 35.6499C47.9999 25.1499 27 23.201 27 15" stroke="#BBBBBB" stroke-width="2" stroke-miterlimit="10" stroke-linecap="round" stroke-linejoin="round"/>
<path d="M47.9999 56.2998C47.9999 48.0988 27 46.1498 27 35.6499C27 30.3999 32.25 27.5502 37.4999 24.6378" stroke="#BBBBBB" stroke-width="2" stroke-miterlimit="10" stroke-linecap="round" stroke-linejoin="round"/>
<path d="M44.3642 20.5338C46.5283 18.9284 48 17.171 48 15" stroke="#BBBBBB" stroke-width="2" stroke-miterlimit="10" stroke-linecap="round" stroke-linejoin="round"/>
<path d="M47.1397 39.1498H27.8602" stroke="#BBBBBB" stroke-width="2" stroke-miterlimit="10" stroke-linecap="round" stroke-linejoin="round"/>
<path d="M27.8602 32.1499H47.1397" stroke="#BBBBBB" stroke-width="2" stroke-miterlimit="10" stroke-linecap="round" stroke-linejoin="round"/>
<path d="M46.5937 52.7998H37.1564" stroke="#BBBBBB" stroke-width="2" stroke-miterlimit="10" stroke-linecap="round" stroke-linejoin="round"/>
<path d="M28.4064 18.5H39.25" stroke="#BBBBBB" stroke-width="2" stroke-miterlimit="10" stroke-linecap="round" stroke-linejoin="round"/>
</g>
</svg>
